<svg xmlns="http://www.w3.org/2000/svg" viewBox="0 0 300 400" width="100%" height="100%">
  <rect width="300" height="400" fill="#0a0f18"/>

  <path d="M0 50 H300 M0 100 H300 M0 150 H300 M0 200 H300 M0 250 H300 M0 300 H300 M0 350 H300" stroke="#ceeff3" stroke-opacity="0.03" stroke-width="1"/>
  <path d="M50 0 V400 M100 0 V400 M150 0 V400 M200 0 V400 M250 0 V400" stroke="#ceeff3" stroke-opacity="0.03" stroke-width="1"/>

  <rect x="20" y="20" width="260" height="360" fill="none" stroke="#ceeff3" stroke-opacity="0.2" stroke-dasharray="8 4" stroke-width="2"/>

  <g transform="translate(150, 160)">
    <path d="M-40 -20 C-60 -20, -70 0, -60 20 C-55 30, -45 35, -35 25 L-20 10 L20 10 L35 25 C45 35, 55 30, 60 20 C70 0, 60 -20, 40 -20 Z" fill="none" stroke="#ceeff3" stroke-width="2.5" stroke-opacity="0.8"/>
    <path d="M-40 -5 V5 M-45 0 H-35" stroke="#f994da" stroke-width="2"/>
    <circle cx="35" cy="-5" r="2" fill="#f994da"/>
    <circle cx="45" cy="5" r="2" fill="#f994da"/>
  </g>

  <text x="150" y="240" font-family="monospace" font-size="24" font-weight="bold" fill="#f994da" text-anchor="middle" letter-spacing="3">NO SIGNAL</text>
  <text x="150" y="270" font-family="sans-serif" font-size="12" fill="#a0aec0" text-anchor="middle" opacity="0.6" letter-spacing="1">IMAGE NOT FOUND</text>

  <rect x="20" y="20" width="8" height="8" fill="#ceeff3" opacity="0.4"/>
  <rect x="272" y="372" width="8" height="8" fill="#f994da" opacity="0.4"/>
</svg>
